<?xml version='1.0' encoding='UTF-8'?>
<!DOCTYPE svg PUBLIC "-//W3C//DTD SVG 1.1//EN" "http://www.w3.org/Graphics/SVG/1.1/DTD/svg11.dtd">
<!-- Created with matplotlib (http://matplotlib.org/) -->
<svg xmlns="http://www.w3.org/2000/svg" xmlns:xlink="http://www.w3.org/1999/xlink" height="400px" version="1.1" viewBox="0 0 600 400" width="600px">
  <title>Mplwp_dispersion curves.svg</title>
  <desc>https://commons.wikimedia.org/wiki/File:Mplwp_dispersion curves.svg
Plot created with mplwp, the Matplotlib extension for Wikipedia plots.</desc>
  <defs>
    <style type="text/css">
*{stroke-linecap:butt;stroke-linejoin:round;stroke-miterlimit:100000;}
  </style>
  </defs>
  <defs>
    <clipPath id="p596e9a5109">
      <rect height="327.0" width="513.0" x="60.5" y="24.5"/>
    </clipPath>
  </defs>
  <g id="figure_1">
    <g id="patch_1">
      <path d="M 0 400 
L 600 400 
L 600 0 
L 0 0 
z 
" style="fill:#ffffff;"/>
    </g>
    <g id="axes_1">
      <g id="patch_2">
        <path d="M 60.5 351.5 
L 573.5 351.5 
L 573.5 24.5 
L 60.5 24.5 
z 
" style="fill:#ffffff;"/>
      </g>
      <g id="patch_3">
        <path clip-path="url(#p596e9a5109)" d="M 92.069231 351.5 
L 92.069231 24.5 
L 249.915385 24.5 
L 249.915385 351.5 
z 
" style="fill:#aaaaaa;opacity:0.5;stroke:#aaaaaa;stroke-linejoin:miter;"/>
      </g>
      <g id="line2d_1">
        <path clip-path="url(#p596e9a5109)" d="M 79.493774 -1 
L 82.2512 3.380216 
L 85.124 7.521187 
L 88.0994 11.418128 
L 91.1774 15.086459 
L 94.4606 18.646832 
L 97.8464 21.98772 
L 101.4374 25.212514 
L 105.131 28.2319 
L 109.0298 31.134188 
L 113.1338 33.914014 
L 117.5456 36.628565 
L 122.1626 39.205516 
L 127.0874 41.696346 
L 132.32 44.090225 
L 137.8604 46.379706 
L 143.8112 48.596517 
L 150.1724 50.727582 
L 157.0466 52.792997 
L 164.4338 54.77782 
L 172.4366 56.694918 
L 181.1576 58.55074 
L 190.5968 60.328925 
L 200.9594 62.050707 
L 212.348 63.712431 
L 224.8652 65.30988 
L 238.7162 66.849871 
L 254.2088 68.343908 
L 271.5482 69.788214 
L 291.1448 71.193212 
L 313.5116 72.569464 
L 339.3668 73.93244 
L 369.7364 75.304414 
L 406.1594 76.719671 
L 451.3034 78.241873 
L 510.8114 80.012677 
L 573.5 81.72725 
L 573.5 81.72725 
" style="fill:none;stroke:#0000cc;stroke-linecap:square;stroke-width:2.4;"/>
      </g>
      <g id="line2d_2">
        <path clip-path="url(#p596e9a5109)" d="M 60.5 20.496253 
L 62.2442 28.927695 
L 64.091 36.782616 
L 66.0404 44.098419 
L 68.0924 50.912736 
L 70.1444 56.976349 
L 72.299 62.670998 
L 74.5562 68.017991 
L 76.916 73.038436 
L 79.3784 77.752813 
L 81.9434 82.180727 
L 84.611 86.340757 
L 87.3812 90.250394 
L 90.254 93.926028 
L 93.332 97.496424 
L 96.5126 100.841717 
L 99.7958 103.978471 
L 103.2842 107.00679 
L 106.9778 109.917461 
L 110.8766 112.704453 
L 114.9806 115.364378 
L 119.3924 117.953326 
L 124.0094 120.403639 
L 128.9342 122.765574 
L 134.1668 125.0299 
L 139.8098 127.228531 
L 145.8632 129.346579 
L 152.4296 131.403914 
L 159.509 133.383937 
L 167.1014 135.275046 
L 175.412 137.112675 
L 184.4408 138.878335 
L 194.2904 140.576121 
L 205.166 142.221678 
L 217.1702 143.808885 
L 230.5082 145.343205 
L 245.3852 146.825552 
L 262.109 148.262819 
L 280.9874 149.657026 
L 302.5334 151.020502 
L 327.4652 152.369856 
L 356.7062 153.723535 
L 391.7954 155.117753 
L 435.1952 156.610493 
L 492.1382 158.334074 
L 573.5 160.571152 
L 573.5 160.571152 
" style="fill:none;stroke:#0000cc;stroke-linecap:square;stroke-width:2.4;"/>
      </g>
      <g id="line2d_3">
        <path clip-path="url(#p596e9a5109)" d="M 60.5 143.730318 
L 62.7572 148.32553 
L 65.117 152.626864 
L 67.5794 156.654062 
L 70.1444 160.425737 
L 72.812 163.959326 
L 75.5822 167.271091 
L 78.5576 170.481469 
L 81.6356 173.479175 
L 84.9188 176.366379 
L 88.4072 179.133222 
L 92.1008 181.773459 
L 95.9996 184.283802 
L 100.1036 186.663342 
L 104.5154 188.963813 
L 109.235 191.17219 
L 114.2624 193.279546 
L 119.7002 195.316741 
L 125.5484 197.269326 
L 131.9096 199.156164 
L 138.7838 200.961485 
L 146.2736 202.697085 
L 154.4816 204.368316 
L 163.5104 205.976054 
L 173.4626 207.518385 
L 184.4408 208.992023 
L 196.7528 210.415495 
L 210.5012 211.776507 
L 225.9938 213.082529 
L 243.641 214.341978 
L 263.8532 215.556644 
L 287.3486 216.740275 
L 315.0506 217.906624 
L 348.3956 219.080026 
L 389.6408 220.299622 
L 443.3006 221.651714 
L 521.3792 223.376623 
L 573.5 224.461052 
L 573.5 224.461052 
" style="fill:none;stroke:#0000cc;stroke-linecap:square;stroke-width:2.4;"/>
      </g>
      <g id="line2d_4">
        <path clip-path="url(#p596e9a5109)" d="M 60.5 209.651203 
L 63.7832 212.253771 
L 67.2716 214.729912 
L 70.9652 217.075881 
L 74.864 219.290607 
L 79.0706 221.42433 
L 83.585 223.463744 
L 88.5098 225.438812 
L 93.7424 227.296853 
L 99.488 229.09777 
L 105.7466 230.821561 
L 112.5182 232.454672 
L 120.008 234.029292 
L 128.216 235.525825 
L 137.3474 236.961972 
L 147.5048 238.331573 
L 158.8934 239.639877 
L 171.821 240.896042 
L 186.4928 242.093266 
L 203.3192 243.238723 
L 222.9158 244.344256 
L 246.0008 245.417457 
L 273.7028 246.475553 
L 307.8686 247.549155 
L 351.6788 248.692273 
L 412.5206 250.041141 
L 524.6624 252.261784 
L 573.5 253.21854 
L 573.5 253.21854 
" style="fill:none;stroke:#0000cc;stroke-linecap:square;stroke-width:2.4;"/>
      </g>
      <g id="line2d_5">
        <path clip-path="url(#p596e9a5109)" d="M 60.5 251.890307 
L 64.3988 254.059311 
L 68.5028 256.088027 
L 72.9146 258.023506 
L 77.7368 259.894446 
L 82.9694 261.682648 
L 88.715 263.404683 
L 94.9736 265.042398 
L 101.8478 266.605965 
L 109.4402 268.099225 
L 117.8534 269.521983 
L 127.19 270.871933 
L 137.7578 272.169409 
L 149.6594 273.401203 
L 163.2026 274.574909 
L 178.7978 275.698628 
L 197.0606 276.784781 
L 218.6066 277.836336 
L 244.5644 278.873216 
L 276.7808 279.928439 
L 318.539 281.061792 
L 377.6366 282.425724 
L 503.9372 285.05516 
L 573.5 286.534195 
L 573.5 286.534195 
" style="fill:none;stroke:#0000cc;stroke-linecap:square;stroke-width:2.4;"/>
      </g>
      <g id="line2d_6">
        <path clip-path="url(#p596e9a5109)" d="M 60.5 278.270535 
L 65.117 280.025178 
L 70.1444 281.697658 
L 75.6848 283.302783 
L 81.7382 284.821956 
L 88.4072 286.264195 
L 95.7944 287.632433 
L 104.105 288.94075 
L 113.4416 290.179446 
L 124.0094 291.350738 
L 136.0136 292.452087 
L 149.8646 293.493291 
L 165.9728 294.474231 
L 184.9538 295.399843 
L 207.6284 296.275365 
L 235.3304 297.113905 
L 270.0092 297.931875 
L 315.3584 298.767545 
L 379.1756 299.704909 
L 490.907 301.088697 
L 573.5 302.076014 
L 573.5 302.076014 
" style="fill:none;stroke:#0000cc;stroke-linecap:square;stroke-width:2.4;"/>
      </g>
      <g id="patch_4">
        <path d="M 60.5 24.5 
L 573.5 24.5 
" style="fill:none;stroke:#000000;stroke-linecap:square;stroke-linejoin:miter;stroke-width:1.25;"/>
      </g>
      <g id="patch_5">
        <path d="M 573.5 351.5 
L 573.5 24.5 
" style="fill:none;stroke:#000000;stroke-linecap:square;stroke-linejoin:miter;stroke-width:1.25;"/>
      </g>
      <g id="patch_6">
        <path d="M 60.5 351.5 
L 573.5 351.5 
" style="fill:none;stroke:#000000;stroke-linecap:square;stroke-linejoin:miter;stroke-width:1.25;"/>
      </g>
      <g id="patch_7">
        <path d="M 60.5 351.5 
L 60.5 24.5 
" style="fill:none;stroke:#000000;stroke-linecap:square;stroke-linejoin:miter;stroke-width:1.25;"/>
      </g>
      <g id="matplotlib.axis_1">
        <g id="xtick_1">
          <g id="line2d_7">
            <path clip-path="url(#p596e9a5109)" d="M 99.961538 351.5 
L 99.961538 24.5 
" style="fill:none;stroke:#000000;stroke-dasharray:1.000000,3.000000;stroke-dashoffset:0.0;stroke-width:0.5;"/>
          </g>
          <g id="line2d_8">
            <defs>
              <path d="M 0 0 
L 0 -4 
" id="m9767116943" style="stroke:#000000;stroke-width:1.25;"/>
            </defs>
            <g>
              <use style="stroke:#000000;stroke-width:1.25;" x="99.9615384615" xlink:href="#m9767116943" y="351.5"/>
            </g>
          </g>
          <g id="line2d_9">
            <defs>
              <path d="M 0 0 
L 0 4 
" id="me7247addae" style="stroke:#000000;stroke-width:1.25;"/>
            </defs>
            <g>
              <use style="stroke:#000000;stroke-width:1.25;" x="99.9615384615" xlink:href="#me7247addae" y="24.5"/>
            </g>
          </g>
          <g id="text_1">
            <!-- 0.4 -->
            <defs>
              <path d="M 31.78125 66.40625 
Q 24.171875 66.40625 20.328125 58.90625 
Q 16.5 51.421875 16.5 36.375 
Q 16.5 21.390625 20.328125 13.890625 
Q 24.171875 6.390625 31.78125 6.390625 
Q 39.453125 6.390625 43.28125 13.890625 
Q 47.125 21.390625 47.125 36.375 
Q 47.125 51.421875 43.28125 58.90625 
Q 39.453125 66.40625 31.78125 66.40625 
M 31.78125 74.21875 
Q 44.046875 74.21875 50.515625 64.515625 
Q 56.984375 54.828125 56.984375 36.375 
Q 56.984375 17.96875 50.515625 8.265625 
Q 44.046875 -1.421875 31.78125 -1.421875 
Q 19.53125 -1.421875 13.0625 8.265625 
Q 6.59375 17.96875 6.59375 36.375 
Q 6.59375 54.828125 13.0625 64.515625 
Q 19.53125 74.21875 31.78125 74.21875 
" id="DejaVuSans-30"/>
              <path d="M 37.796875 64.3125 
L 12.890625 25.390625 
L 37.796875 25.390625 
z 
M 35.203125 72.90625 
L 47.609375 72.90625 
L 47.609375 25.390625 
L 58.015625 25.390625 
L 58.015625 17.1875 
L 47.609375 17.1875 
L 47.609375 0 
L 37.796875 0 
L 37.796875 17.1875 
L 4.890625 17.1875 
L 4.890625 26.703125 
z 
" id="DejaVuSans-34"/>
              <path d="M 10.6875 12.40625 
L 21 12.40625 
L 21 0 
L 10.6875 0 
z 
" id="DejaVuSans-2e"/>
            </defs>
            <g transform="translate(87.2390384615 370.6575)scale(0.16 -0.16)">
              <use xlink:href="#DejaVuSans-30"/>
              <use x="63.623046875" xlink:href="#DejaVuSans-2e"/>
              <use x="95.41015625" xlink:href="#DejaVuSans-34"/>
            </g>
          </g>
        </g>
        <g id="xtick_2">
          <g id="line2d_10">
            <path clip-path="url(#p596e9a5109)" d="M 178.884615 351.5 
L 178.884615 24.5 
" style="fill:none;stroke:#000000;stroke-dasharray:1.000000,3.000000;stroke-dashoffset:0.0;stroke-width:0.5;"/>
          </g>
          <g id="line2d_11">
            <g>
              <use style="stroke:#000000;stroke-width:1.25;" x="178.884615385" xlink:href="#m9767116943" y="351.5"/>
            </g>
          </g>
          <g id="line2d_12">
            <g>
              <use style="stroke:#000000;stroke-width:1.25;" x="178.884615385" xlink:href="#me7247addae" y="24.5"/>
            </g>
          </g>
          <g id="text_2">
            <!-- 0.6 -->
            <defs>
              <path d="M 33.015625 40.375 
Q 26.375 40.375 22.484375 35.828125 
Q 18.609375 31.296875 18.609375 23.390625 
Q 18.609375 15.53125 22.484375 10.953125 
Q 26.375 6.390625 33.015625 6.390625 
Q 39.65625 6.390625 43.53125 10.953125 
Q 47.40625 15.53125 47.40625 23.390625 
Q 47.40625 31.296875 43.53125 35.828125 
Q 39.65625 40.375 33.015625 40.375 
M 52.59375 71.296875 
L 52.59375 62.3125 
Q 48.875 64.0625 45.09375 64.984375 
Q 41.3125 65.921875 37.59375 65.921875 
Q 27.828125 65.921875 22.671875 59.328125 
Q 17.53125 52.734375 16.796875 39.40625 
Q 19.671875 43.65625 24.015625 45.921875 
Q 28.375 48.1875 33.59375 48.1875 
Q 44.578125 48.1875 50.953125 41.515625 
Q 57.328125 34.859375 57.328125 23.390625 
Q 57.328125 12.15625 50.6875 5.359375 
Q 44.046875 -1.421875 33.015625 -1.421875 
Q 20.359375 -1.421875 13.671875 8.265625 
Q 6.984375 17.96875 6.984375 36.375 
Q 6.984375 53.65625 15.1875 63.9375 
Q 23.390625 74.21875 37.203125 74.21875 
Q 40.921875 74.21875 44.703125 73.484375 
Q 48.484375 72.75 52.59375 71.296875 
" id="DejaVuSans-36"/>
            </defs>
            <g transform="translate(166.162115385 370.6575)scale(0.16 -0.16)">
              <use xlink:href="#DejaVuSans-30"/>
              <use x="63.623046875" xlink:href="#DejaVuSans-2e"/>
              <use x="95.41015625" xlink:href="#DejaVuSans-36"/>
            </g>
          </g>
        </g>
        <g id="xtick_3">
          <g id="line2d_13">
            <path clip-path="url(#p596e9a5109)" d="M 257.807692 351.5 
L 257.807692 24.5 
" style="fill:none;stroke:#000000;stroke-dasharray:1.000000,3.000000;stroke-dashoffset:0.0;stroke-width:0.5;"/>
          </g>
          <g id="line2d_14">
            <g>
              <use style="stroke:#000000;stroke-width:1.25;" x="257.807692308" xlink:href="#m9767116943" y="351.5"/>
            </g>
          </g>
          <g id="line2d_15">
            <g>
              <use style="stroke:#000000;stroke-width:1.25;" x="257.807692308" xlink:href="#me7247addae" y="24.5"/>
            </g>
          </g>
          <g id="text_3">
            <!-- 0.8 -->
            <defs>
              <path d="M 31.78125 34.625 
Q 24.75 34.625 20.71875 30.859375 
Q 16.703125 27.09375 16.703125 20.515625 
Q 16.703125 13.921875 20.71875 10.15625 
Q 24.75 6.390625 31.78125 6.390625 
Q 38.8125 6.390625 42.859375 10.171875 
Q 46.921875 13.96875 46.921875 20.515625 
Q 46.921875 27.09375 42.890625 30.859375 
Q 38.875 34.625 31.78125 34.625 
M 21.921875 38.8125 
Q 15.578125 40.375 12.03125 44.71875 
Q 8.5 49.078125 8.5 55.328125 
Q 8.5 64.0625 14.71875 69.140625 
Q 20.953125 74.21875 31.78125 74.21875 
Q 42.671875 74.21875 48.875 69.140625 
Q 55.078125 64.0625 55.078125 55.328125 
Q 55.078125 49.078125 51.53125 44.71875 
Q 48 40.375 41.703125 38.8125 
Q 48.828125 37.15625 52.796875 32.3125 
Q 56.78125 27.484375 56.78125 20.515625 
Q 56.78125 9.90625 50.3125 4.234375 
Q 43.84375 -1.421875 31.78125 -1.421875 
Q 19.734375 -1.421875 13.25 4.234375 
Q 6.78125 9.90625 6.78125 20.515625 
Q 6.78125 27.484375 10.78125 32.3125 
Q 14.796875 37.15625 21.921875 38.8125 
M 18.3125 54.390625 
Q 18.3125 48.734375 21.84375 45.5625 
Q 25.390625 42.390625 31.78125 42.390625 
Q 38.140625 42.390625 41.71875 45.5625 
Q 45.3125 48.734375 45.3125 54.390625 
Q 45.3125 60.0625 41.71875 63.234375 
Q 38.140625 66.40625 31.78125 66.40625 
Q 25.390625 66.40625 21.84375 63.234375 
Q 18.3125 60.0625 18.3125 54.390625 
" id="DejaVuSans-38"/>
            </defs>
            <g transform="translate(245.085192308 370.6575)scale(0.16 -0.16)">
              <use xlink:href="#DejaVuSans-30"/>
              <use x="63.623046875" xlink:href="#DejaVuSans-2e"/>
              <use x="95.41015625" xlink:href="#DejaVuSans-38"/>
            </g>
          </g>
        </g>
        <g id="xtick_4">
          <g id="line2d_16">
            <path clip-path="url(#p596e9a5109)" d="M 336.730769 351.5 
L 336.730769 24.5 
" style="fill:none;stroke:#000000;stroke-dasharray:1.000000,3.000000;stroke-dashoffset:0.0;stroke-width:0.5;"/>
          </g>
          <g id="line2d_17">
            <g>
              <use style="stroke:#000000;stroke-width:1.25;" x="336.730769231" xlink:href="#m9767116943" y="351.5"/>
            </g>
          </g>
          <g id="line2d_18">
            <g>
              <use style="stroke:#000000;stroke-width:1.25;" x="336.730769231" xlink:href="#me7247addae" y="24.5"/>
            </g>
          </g>
          <g id="text_4">
            <!-- 1.0 -->
            <defs>
              <path d="M 12.40625 8.296875 
L 28.515625 8.296875 
L 28.515625 63.921875 
L 10.984375 60.40625 
L 10.984375 69.390625 
L 28.421875 72.90625 
L 38.28125 72.90625 
L 38.28125 8.296875 
L 54.390625 8.296875 
L 54.390625 0 
L 12.40625 0 
z 
" id="DejaVuSans-31"/>
            </defs>
            <g transform="translate(324.008269231 370.6575)scale(0.16 -0.16)">
              <use xlink:href="#DejaVuSans-31"/>
              <use x="63.623046875" xlink:href="#DejaVuSans-2e"/>
              <use x="95.41015625" xlink:href="#DejaVuSans-30"/>
            </g>
          </g>
        </g>
        <g id="xtick_5">
          <g id="line2d_19">
            <path clip-path="url(#p596e9a5109)" d="M 415.653846 351.5 
L 415.653846 24.5 
" style="fill:none;stroke:#000000;stroke-dasharray:1.000000,3.000000;stroke-dashoffset:0.0;stroke-width:0.5;"/>
          </g>
          <g id="line2d_20">
            <g>
              <use style="stroke:#000000;stroke-width:1.25;" x="415.653846154" xlink:href="#m9767116943" y="351.5"/>
            </g>
          </g>
          <g id="line2d_21">
            <g>
              <use style="stroke:#000000;stroke-width:1.25;" x="415.653846154" xlink:href="#me7247addae" y="24.5"/>
            </g>
          </g>
          <g id="text_5">
            <!-- 1.2 -->
            <defs>
              <path d="M 19.1875 8.296875 
L 53.609375 8.296875 
L 53.609375 0 
L 7.328125 0 
L 7.328125 8.296875 
Q 12.9375 14.109375 22.625 23.890625 
Q 32.328125 33.6875 34.8125 36.53125 
Q 39.546875 41.84375 41.421875 45.53125 
Q 43.3125 49.21875 43.3125 52.78125 
Q 43.3125 58.59375 39.234375 62.25 
Q 35.15625 65.921875 28.609375 65.921875 
Q 23.96875 65.921875 18.8125 64.3125 
Q 13.671875 62.703125 7.8125 59.421875 
L 7.8125 69.390625 
Q 13.765625 71.78125 18.9375 73 
Q 24.125 74.21875 28.421875 74.21875 
Q 39.75 74.21875 46.484375 68.546875 
Q 53.21875 62.890625 53.21875 53.421875 
Q 53.21875 48.921875 51.53125 44.890625 
Q 49.859375 40.875 45.40625 35.40625 
Q 44.1875 33.984375 37.640625 27.21875 
Q 31.109375 20.453125 19.1875 8.296875 
" id="DejaVuSans-32"/>
            </defs>
            <g transform="translate(402.931346154 370.6575)scale(0.16 -0.16)">
              <use xlink:href="#DejaVuSans-31"/>
              <use x="63.623046875" xlink:href="#DejaVuSans-2e"/>
              <use x="95.41015625" xlink:href="#DejaVuSans-32"/>
            </g>
          </g>
        </g>
        <g id="xtick_6">
          <g id="line2d_22">
            <path clip-path="url(#p596e9a5109)" d="M 494.576923 351.5 
L 494.576923 24.5 
" style="fill:none;stroke:#000000;stroke-dasharray:1.000000,3.000000;stroke-dashoffset:0.0;stroke-width:0.5;"/>
          </g>
          <g id="line2d_23">
            <g>
              <use style="stroke:#000000;stroke-width:1.25;" x="494.576923077" xlink:href="#m9767116943" y="351.5"/>
            </g>
          </g>
          <g id="line2d_24">
            <g>
              <use style="stroke:#000000;stroke-width:1.25;" x="494.576923077" xlink:href="#me7247addae" y="24.5"/>
            </g>
          </g>
          <g id="text_6">
            <!-- 1.4 -->
            <g transform="translate(481.854423077 370.6575)scale(0.16 -0.16)">
              <use xlink:href="#DejaVuSans-31"/>
              <use x="63.623046875" xlink:href="#DejaVuSans-2e"/>
              <use x="95.41015625" xlink:href="#DejaVuSans-34"/>
            </g>
          </g>
        </g>
        <g id="xtick_7">
          <g id="line2d_25">
            <path clip-path="url(#p596e9a5109)" d="M 573.5 351.5 
L 573.5 24.5 
" style="fill:none;stroke:#000000;stroke-dasharray:1.000000,3.000000;stroke-dashoffset:0.0;stroke-width:0.5;"/>
          </g>
          <g id="line2d_26">
            <g>
              <use style="stroke:#000000;stroke-width:1.25;" x="573.5" xlink:href="#m9767116943" y="351.5"/>
            </g>
          </g>
          <g id="line2d_27">
            <g>
              <use style="stroke:#000000;stroke-width:1.25;" x="573.5" xlink:href="#me7247addae" y="24.5"/>
            </g>
          </g>
          <g id="text_7">
            <!-- 1.6 -->
            <g transform="translate(560.7775 370.6575)scale(0.16 -0.16)">
              <use xlink:href="#DejaVuSans-31"/>
              <use x="63.623046875" xlink:href="#DejaVuSans-2e"/>
              <use x="95.41015625" xlink:href="#DejaVuSans-36"/>
            </g>
          </g>
        </g>
        <g id="text_8">
          <!-- wavelength $\lambda$ [$\mu m$] -->
          <defs>
            <path d="M 56.203125 29.59375 
L 56.203125 25.203125 
L 14.890625 25.203125 
Q 15.484375 15.921875 20.484375 11.0625 
Q 25.484375 6.203125 34.421875 6.203125 
Q 39.59375 6.203125 44.453125 7.46875 
Q 49.3125 8.734375 54.109375 11.28125 
L 54.109375 2.78125 
Q 49.265625 0.734375 44.1875 -0.34375 
Q 39.109375 -1.421875 33.890625 -1.421875 
Q 20.796875 -1.421875 13.15625 6.1875 
Q 5.515625 13.8125 5.515625 26.8125 
Q 5.515625 40.234375 12.765625 48.109375 
Q 20.015625 56 32.328125 56 
Q 43.359375 56 49.78125 48.890625 
Q 56.203125 41.796875 56.203125 29.59375 
M 47.21875 32.234375 
Q 47.125 39.59375 43.09375 43.984375 
Q 39.0625 48.390625 32.421875 48.390625 
Q 24.90625 48.390625 20.390625 44.140625 
Q 15.875 39.890625 15.1875 32.171875 
z 
" id="DejaVuSans-65"/>
            <path d="M 30.953125 67.4375 
L 56.203125 0 
L 46.6875 0 
L 31.34375 40.4375 
L 12.5 0 
L 2.984375 0 
L 26.953125 52.4375 
L 23.34375 62.109375 
Q 21.046875 68.265625 15.828125 68.265625 
L 11.140625 68.265625 
L 11.140625 75.984375 
L 16.84375 75.875 
Q 27.875 75.734375 30.953125 67.4375 
" id="DejaVuSans-3bb"/>
            <path d="M 8.5 -20.796875 
L 8.5 54.6875 
L 17.484375 54.6875 
L 17.484375 20.703125 
Q 17.484375 13.625 20.84375 10 
Q 24.21875 6.390625 30.8125 6.390625 
Q 38.03125 6.390625 41.671875 10.484375 
Q 45.3125 14.59375 45.3125 22.796875 
L 45.3125 54.6875 
L 54.296875 54.6875 
L 54.296875 12.59375 
Q 54.296875 9.671875 55.140625 8.28125 
Q 56 6.890625 57.8125 6.890625 
Q 58.25 6.890625 59.03125 7.15625 
Q 59.8125 7.421875 61.1875 8.015625 
L 61.1875 0.78125 
Q 59.1875 -0.34375 57.390625 -0.875 
Q 55.609375 -1.421875 53.90625 -1.421875 
Q 50.53125 -1.421875 48.53125 0.484375 
Q 46.53125 2.390625 45.796875 6.296875 
Q 43.359375 2.4375 39.8125 0.5 
Q 36.28125 -1.421875 31.5 -1.421875 
Q 26.515625 -1.421875 23.015625 0.484375 
Q 19.53125 2.390625 17.484375 6.203125 
L 17.484375 -20.796875 
z 
" id="DejaVuSans-3bc"/>
            <path d="M 8.59375 75.984375 
L 29.296875 75.984375 
L 29.296875 69 
L 17.578125 69 
L 17.578125 -6.203125 
L 29.296875 -6.203125 
L 29.296875 -13.1875 
L 8.59375 -13.1875 
z 
" id="DejaVuSans-5b"/>
            <path d="M 52 44.1875 
Q 55.375 50.25 60.0625 53.125 
Q 64.75 56 71.09375 56 
Q 79.640625 56 84.28125 50.015625 
Q 88.921875 44.046875 88.921875 33.015625 
L 88.921875 0 
L 79.890625 0 
L 79.890625 32.71875 
Q 79.890625 40.578125 77.09375 44.375 
Q 74.3125 48.1875 68.609375 48.1875 
Q 61.625 48.1875 57.5625 43.546875 
Q 53.515625 38.921875 53.515625 30.90625 
L 53.515625 0 
L 44.484375 0 
L 44.484375 32.71875 
Q 44.484375 40.625 41.703125 44.40625 
Q 38.921875 48.1875 33.109375 48.1875 
Q 26.21875 48.1875 22.15625 43.53125 
Q 18.109375 38.875 18.109375 30.90625 
L 18.109375 0 
L 9.078125 0 
L 9.078125 54.6875 
L 18.109375 54.6875 
L 18.109375 46.1875 
Q 21.1875 51.21875 25.484375 53.609375 
Q 29.78125 56 35.6875 56 
Q 41.65625 56 45.828125 52.96875 
Q 50 49.953125 52 44.1875 
" id="DejaVuSans-6d"/>
            <path d="M 54.890625 33.015625 
L 54.890625 0 
L 45.90625 0 
L 45.90625 32.71875 
Q 45.90625 40.484375 42.875 44.328125 
Q 39.84375 48.1875 33.796875 48.1875 
Q 26.515625 48.1875 22.3125 43.546875 
Q 18.109375 38.921875 18.109375 30.90625 
L 18.109375 0 
L 9.078125 0 
L 9.078125 54.6875 
L 18.109375 54.6875 
L 18.109375 46.1875 
Q 21.34375 51.125 25.703125 53.5625 
Q 30.078125 56 35.796875 56 
Q 45.21875 56 50.046875 50.171875 
Q 54.890625 44.34375 54.890625 33.015625 
" id="DejaVuSans-6e"/>
            <path d="M 9.421875 75.984375 
L 18.40625 75.984375 
L 18.40625 0 
L 9.421875 0 
z 
" id="DejaVuSans-6c"/>
            <path d="M 30.421875 75.984375 
L 30.421875 -13.1875 
L 9.71875 -13.1875 
L 9.71875 -6.203125 
L 21.390625 -6.203125 
L 21.390625 69 
L 9.71875 69 
L 9.71875 75.984375 
z 
" id="DejaVuSans-5d"/>
            <path id="DejaVuSans-20"/>
            <path d="M 54.890625 33.015625 
L 54.890625 0 
L 45.90625 0 
L 45.90625 32.71875 
Q 45.90625 40.484375 42.875 44.328125 
Q 39.84375 48.1875 33.796875 48.1875 
Q 26.515625 48.1875 22.3125 43.546875 
Q 18.109375 38.921875 18.109375 30.90625 
L 18.109375 0 
L 9.078125 0 
L 9.078125 75.984375 
L 18.109375 75.984375 
L 18.109375 46.1875 
Q 21.34375 51.125 25.703125 53.5625 
Q 30.078125 56 35.796875 56 
Q 45.21875 56 50.046875 50.171875 
Q 54.890625 44.34375 54.890625 33.015625 
" id="DejaVuSans-68"/>
            <path d="M 18.3125 70.21875 
L 18.3125 54.6875 
L 36.8125 54.6875 
L 36.8125 47.703125 
L 18.3125 47.703125 
L 18.3125 18.015625 
Q 18.3125 11.328125 20.140625 9.421875 
Q 21.96875 7.515625 27.59375 7.515625 
L 36.8125 7.515625 
L 36.8125 0 
L 27.59375 0 
Q 17.1875 0 13.234375 3.875 
Q 9.28125 7.765625 9.28125 18.015625 
L 9.28125 47.703125 
L 2.6875 47.703125 
L 2.6875 54.6875 
L 9.28125 54.6875 
L 9.28125 70.21875 
z 
" id="DejaVuSans-74"/>
            <path d="M 45.40625 27.984375 
Q 45.40625 37.75 41.375 43.109375 
Q 37.359375 48.484375 30.078125 48.484375 
Q 22.859375 48.484375 18.828125 43.109375 
Q 14.796875 37.75 14.796875 27.984375 
Q 14.796875 18.265625 18.828125 12.890625 
Q 22.859375 7.515625 30.078125 7.515625 
Q 37.359375 7.515625 41.375 12.890625 
Q 45.40625 18.265625 45.40625 27.984375 
M 54.390625 6.78125 
Q 54.390625 -7.171875 48.1875 -13.984375 
Q 42 -20.796875 29.203125 -20.796875 
Q 24.46875 -20.796875 20.265625 -20.09375 
Q 16.0625 -19.390625 12.109375 -17.921875 
L 12.109375 -9.1875 
Q 16.0625 -11.328125 19.921875 -12.34375 
Q 23.78125 -13.375 27.78125 -13.375 
Q 36.625 -13.375 41.015625 -8.765625 
Q 45.40625 -4.15625 45.40625 5.171875 
L 45.40625 9.625 
Q 42.625 4.78125 38.28125 2.390625 
Q 33.9375 0 27.875 0 
Q 17.828125 0 11.671875 7.65625 
Q 5.515625 15.328125 5.515625 27.984375 
Q 5.515625 40.671875 11.671875 48.328125 
Q 17.828125 56 27.875 56 
Q 33.9375 56 38.28125 53.609375 
Q 42.625 51.21875 45.40625 46.390625 
L 45.40625 54.6875 
L 54.390625 54.6875 
z 
" id="DejaVuSans-67"/>
            <path d="M 4.203125 54.6875 
L 13.1875 54.6875 
L 24.421875 12.015625 
L 35.59375 54.6875 
L 46.1875 54.6875 
L 57.421875 12.015625 
L 68.609375 54.6875 
L 77.59375 54.6875 
L 63.28125 0 
L 52.6875 0 
L 40.921875 44.828125 
L 29.109375 0 
L 18.5 0 
z 
" id="DejaVuSans-77"/>
            <path d="M 2.984375 54.6875 
L 12.5 54.6875 
L 29.59375 8.796875 
L 46.6875 54.6875 
L 56.203125 54.6875 
L 35.6875 0 
L 23.484375 0 
z 
" id="DejaVuSans-76"/>
            <path d="M 34.28125 27.484375 
Q 23.390625 27.484375 19.1875 25 
Q 14.984375 22.515625 14.984375 16.5 
Q 14.984375 11.71875 18.140625 8.90625 
Q 21.296875 6.109375 26.703125 6.109375 
Q 34.1875 6.109375 38.703125 11.40625 
Q 43.21875 16.703125 43.21875 25.484375 
L 43.21875 27.484375 
z 
M 52.203125 31.203125 
L 52.203125 0 
L 43.21875 0 
L 43.21875 8.296875 
Q 40.140625 3.328125 35.546875 0.953125 
Q 30.953125 -1.421875 24.3125 -1.421875 
Q 15.921875 -1.421875 10.953125 3.296875 
Q 6 8.015625 6 15.921875 
Q 6 25.140625 12.171875 29.828125 
Q 18.359375 34.515625 30.609375 34.515625 
L 43.21875 34.515625 
L 43.21875 35.40625 
Q 43.21875 41.609375 39.140625 45 
Q 35.0625 48.390625 27.6875 48.390625 
Q 23 48.390625 18.546875 47.265625 
Q 14.109375 46.140625 10.015625 43.890625 
L 10.015625 52.203125 
Q 14.9375 54.109375 19.578125 55.046875 
Q 24.21875 56 28.609375 56 
Q 40.484375 56 46.34375 49.84375 
Q 52.203125 43.703125 52.203125 31.203125 
" id="DejaVuSans-61"/>
          </defs>
          <g transform="translate(241.4 391.145)scale(0.16 -0.16)">
            <use transform="translate(0.0 0.015625)" xlink:href="#DejaVuSans-77"/>
            <use transform="translate(81.787109375 0.015625)" xlink:href="#DejaVuSans-61"/>
            <use transform="translate(143.06640625 0.015625)" xlink:href="#DejaVuSans-76"/>
            <use transform="translate(202.24609375 0.015625)" xlink:href="#DejaVuSans-65"/>
            <use transform="translate(263.76953125 0.015625)" xlink:href="#DejaVuSans-6c"/>
            <use transform="translate(291.552734375 0.015625)" xlink:href="#DejaVuSans-65"/>
            <use transform="translate(353.076171875 0.015625)" xlink:href="#DejaVuSans-6e"/>
            <use transform="translate(416.455078125 0.015625)" xlink:href="#DejaVuSans-67"/>
            <use transform="translate(479.931640625 0.015625)" xlink:href="#DejaVuSans-74"/>
            <use transform="translate(519.140625 0.015625)" xlink:href="#DejaVuSans-68"/>
            <use transform="translate(582.51953125 0.015625)" xlink:href="#DejaVuSans-20"/>
            <use transform="translate(614.306640625 0.015625)" xlink:href="#DejaVuSans-3bb"/>
            <use transform="translate(673.486328125 0.015625)" xlink:href="#DejaVuSans-20"/>
            <use transform="translate(705.2734375 0.015625)" xlink:href="#DejaVuSans-5b"/>
            <use transform="translate(744.287109375 0.015625)" xlink:href="#DejaVuSans-3bc"/>
            <use transform="translate(807.91015625 0.015625)" xlink:href="#DejaVuSans-6d"/>
            <use transform="translate(905.322265625 0.015625)" xlink:href="#DejaVuSans-5d"/>
          </g>
        </g>
      </g>
      <g id="matplotlib.axis_2">
        <g id="ytick_1">
          <g id="line2d_28">
            <path clip-path="url(#p596e9a5109)" d="M 60.5 351.5 
L 573.5 351.5 
" style="fill:none;stroke:#000000;stroke-dasharray:1.000000,3.000000;stroke-dashoffset:0.0;stroke-width:0.5;"/>
          </g>
          <g id="line2d_29">
            <defs>
              <path d="M 0 0 
L 4 0 
" id="m46816c44ee" style="stroke:#000000;stroke-width:1.25;"/>
            </defs>
            <g>
              <use style="stroke:#000000;stroke-width:1.25;" x="60.5" xlink:href="#m46816c44ee" y="351.5"/>
            </g>
          </g>
          <g id="line2d_30">
            <defs>
              <path d="M 0 0 
L -4 0 
" id="m529a730b9f" style="stroke:#000000;stroke-width:1.25;"/>
            </defs>
            <g>
              <use style="stroke:#000000;stroke-width:1.25;" x="573.5" xlink:href="#m529a730b9f" y="351.5"/>
            </g>
          </g>
          <g id="text_9">
            <!-- 1.4 -->
            <g transform="translate(28.055 355.915)scale(0.16 -0.16)">
              <use xlink:href="#DejaVuSans-31"/>
              <use x="63.623046875" xlink:href="#DejaVuSans-2e"/>
              <use x="95.41015625" xlink:href="#DejaVuSans-34"/>
            </g>
          </g>
        </g>
        <g id="ytick_2">
          <g id="line2d_31">
            <path clip-path="url(#p596e9a5109)" d="M 60.5 286.1 
L 573.5 286.1 
" style="fill:none;stroke:#000000;stroke-dasharray:1.000000,3.000000;stroke-dashoffset:0.0;stroke-width:0.5;"/>
          </g>
          <g id="line2d_32">
            <g>
              <use style="stroke:#000000;stroke-width:1.25;" x="60.5" xlink:href="#m46816c44ee" y="286.1"/>
            </g>
          </g>
          <g id="line2d_33">
            <g>
              <use style="stroke:#000000;stroke-width:1.25;" x="573.5" xlink:href="#m529a730b9f" y="286.1"/>
            </g>
          </g>
          <g id="text_10">
            <!-- 1.5 -->
            <defs>
              <path d="M 10.796875 72.90625 
L 49.515625 72.90625 
L 49.515625 64.59375 
L 19.828125 64.59375 
L 19.828125 46.734375 
Q 21.96875 47.46875 24.109375 47.828125 
Q 26.265625 48.1875 28.421875 48.1875 
Q 40.625 48.1875 47.75 41.5 
Q 54.890625 34.8125 54.890625 23.390625 
Q 54.890625 11.625 47.5625 5.09375 
Q 40.234375 -1.421875 26.90625 -1.421875 
Q 22.3125 -1.421875 17.546875 -0.640625 
Q 12.796875 0.140625 7.71875 1.703125 
L 7.71875 11.625 
Q 12.109375 9.234375 16.796875 8.0625 
Q 21.484375 6.890625 26.703125 6.890625 
Q 35.15625 6.890625 40.078125 11.328125 
Q 45.015625 15.765625 45.015625 23.390625 
Q 45.015625 31 40.078125 35.4375 
Q 35.15625 39.890625 26.703125 39.890625 
Q 22.75 39.890625 18.8125 39.015625 
Q 14.890625 38.140625 10.796875 36.28125 
z 
" id="DejaVuSans-35"/>
            </defs>
            <g transform="translate(28.055 290.515)scale(0.16 -0.16)">
              <use xlink:href="#DejaVuSans-31"/>
              <use x="63.623046875" xlink:href="#DejaVuSans-2e"/>
              <use x="95.41015625" xlink:href="#DejaVuSans-35"/>
            </g>
          </g>
        </g>
        <g id="ytick_3">
          <g id="line2d_34">
            <path clip-path="url(#p596e9a5109)" d="M 60.5 220.7 
L 573.5 220.7 
" style="fill:none;stroke:#000000;stroke-dasharray:1.000000,3.000000;stroke-dashoffset:0.0;stroke-width:0.5;"/>
          </g>
          <g id="line2d_35">
            <g>
              <use style="stroke:#000000;stroke-width:1.25;" x="60.5" xlink:href="#m46816c44ee" y="220.7"/>
            </g>
          </g>
          <g id="line2d_36">
            <g>
              <use style="stroke:#000000;stroke-width:1.25;" x="573.5" xlink:href="#m529a730b9f" y="220.7"/>
            </g>
          </g>
          <g id="text_11">
            <!-- 1.6 -->
            <g transform="translate(28.055 225.115)scale(0.16 -0.16)">
              <use xlink:href="#DejaVuSans-31"/>
              <use x="63.623046875" xlink:href="#DejaVuSans-2e"/>
              <use x="95.41015625" xlink:href="#DejaVuSans-36"/>
            </g>
          </g>
        </g>
        <g id="ytick_4">
          <g id="line2d_37">
            <path clip-path="url(#p596e9a5109)" d="M 60.5 155.3 
L 573.5 155.3 
" style="fill:none;stroke:#000000;stroke-dasharray:1.000000,3.000000;stroke-dashoffset:0.0;stroke-width:0.5;"/>
          </g>
          <g id="line2d_38">
            <g>
              <use style="stroke:#000000;stroke-width:1.25;" x="60.5" xlink:href="#m46816c44ee" y="155.3"/>
            </g>
          </g>
          <g id="line2d_39">
            <g>
              <use style="stroke:#000000;stroke-width:1.25;" x="573.5" xlink:href="#m529a730b9f" y="155.3"/>
            </g>
          </g>
          <g id="text_12">
            <!-- 1.7 -->
            <defs>
              <path d="M 8.203125 72.90625 
L 55.078125 72.90625 
L 55.078125 68.703125 
L 28.609375 0 
L 18.3125 0 
L 43.21875 64.59375 
L 8.203125 64.59375 
z 
" id="DejaVuSans-37"/>
            </defs>
            <g transform="translate(28.055 159.715)scale(0.16 -0.16)">
              <use xlink:href="#DejaVuSans-31"/>
              <use x="63.623046875" xlink:href="#DejaVuSans-2e"/>
              <use x="95.41015625" xlink:href="#DejaVuSans-37"/>
            </g>
          </g>
        </g>
        <g id="ytick_5">
          <g id="line2d_40">
            <path clip-path="url(#p596e9a5109)" d="M 60.5 89.9 
L 573.5 89.9 
" style="fill:none;stroke:#000000;stroke-dasharray:1.000000,3.000000;stroke-dashoffset:0.0;stroke-width:0.5;"/>
          </g>
          <g id="line2d_41">
            <g>
              <use style="stroke:#000000;stroke-width:1.25;" x="60.5" xlink:href="#m46816c44ee" y="89.9"/>
            </g>
          </g>
          <g id="line2d_42">
            <g>
              <use style="stroke:#000000;stroke-width:1.25;" x="573.5" xlink:href="#m529a730b9f" y="89.9"/>
            </g>
          </g>
          <g id="text_13">
            <!-- 1.8 -->
            <g transform="translate(28.055 94.315)scale(0.16 -0.16)">
              <use xlink:href="#DejaVuSans-31"/>
              <use x="63.623046875" xlink:href="#DejaVuSans-2e"/>
              <use x="95.41015625" xlink:href="#DejaVuSans-38"/>
            </g>
          </g>
        </g>
        <g id="ytick_6">
          <g id="text_14">
            <!-- 1.9 -->
            <defs>
              <path d="M 10.984375 1.515625 
L 10.984375 10.5 
Q 14.703125 8.734375 18.5 7.8125 
Q 22.3125 6.890625 25.984375 6.890625 
Q 35.75 6.890625 40.890625 13.453125 
Q 46.046875 20.015625 46.78125 33.40625 
Q 43.953125 29.203125 39.59375 26.953125 
Q 35.25 24.703125 29.984375 24.703125 
Q 19.046875 24.703125 12.671875 31.3125 
Q 6.296875 37.9375 6.296875 49.421875 
Q 6.296875 60.640625 12.9375 67.421875 
Q 19.578125 74.21875 30.609375 74.21875 
Q 43.265625 74.21875 49.921875 64.515625 
Q 56.59375 54.828125 56.59375 36.375 
Q 56.59375 19.140625 48.40625 8.859375 
Q 40.234375 -1.421875 26.421875 -1.421875 
Q 22.703125 -1.421875 18.890625 -0.6875 
Q 15.09375 0.046875 10.984375 1.515625 
M 30.609375 32.421875 
Q 37.25 32.421875 41.125 36.953125 
Q 45.015625 41.5 45.015625 49.421875 
Q 45.015625 57.28125 41.125 61.84375 
Q 37.25 66.40625 30.609375 66.40625 
Q 23.96875 66.40625 20.09375 61.84375 
Q 16.21875 57.28125 16.21875 49.421875 
Q 16.21875 41.5 20.09375 36.953125 
Q 23.96875 32.421875 30.609375 32.421875 
" id="DejaVuSans-39"/>
            </defs>
            <g transform="translate(28.055 28.915)scale(0.16 -0.16)">
              <use xlink:href="#DejaVuSans-31"/>
              <use x="63.623046875" xlink:href="#DejaVuSans-2e"/>
              <use x="95.41015625" xlink:href="#DejaVuSans-39"/>
            </g>
          </g>
        </g>
        <g id="text_15">
          <!-- refractive index n -->
          <defs>
            <path d="M 54.890625 54.6875 
L 35.109375 28.078125 
L 55.90625 0 
L 45.3125 0 
L 29.390625 21.484375 
L 13.484375 0 
L 2.875 0 
L 24.125 28.609375 
L 4.6875 54.6875 
L 15.28125 54.6875 
L 29.78125 35.203125 
L 44.28125 54.6875 
z 
" id="DejaVuSans-78"/>
            <path d="M 9.421875 54.6875 
L 18.40625 54.6875 
L 18.40625 0 
L 9.421875 0 
z 
M 9.421875 75.984375 
L 18.40625 75.984375 
L 18.40625 64.59375 
L 9.421875 64.59375 
z 
" id="DejaVuSans-69"/>
            <path d="M 37.109375 75.984375 
L 37.109375 68.5 
L 28.515625 68.5 
Q 23.6875 68.5 21.796875 66.546875 
Q 19.921875 64.59375 19.921875 59.515625 
L 19.921875 54.6875 
L 34.71875 54.6875 
L 34.71875 47.703125 
L 19.921875 47.703125 
L 19.921875 0 
L 10.890625 0 
L 10.890625 47.703125 
L 2.296875 47.703125 
L 2.296875 54.6875 
L 10.890625 54.6875 
L 10.890625 58.5 
Q 10.890625 67.625 15.140625 71.796875 
Q 19.390625 75.984375 28.609375 75.984375 
z 
" id="DejaVuSans-66"/>
            <path d="M 45.40625 46.390625 
L 45.40625 75.984375 
L 54.390625 75.984375 
L 54.390625 0 
L 45.40625 0 
L 45.40625 8.203125 
Q 42.578125 3.328125 38.25 0.953125 
Q 33.9375 -1.421875 27.875 -1.421875 
Q 17.96875 -1.421875 11.734375 6.484375 
Q 5.515625 14.40625 5.515625 27.296875 
Q 5.515625 40.1875 11.734375 48.09375 
Q 17.96875 56 27.875 56 
Q 33.9375 56 38.25 53.625 
Q 42.578125 51.265625 45.40625 46.390625 
M 14.796875 27.296875 
Q 14.796875 17.390625 18.875 11.75 
Q 22.953125 6.109375 30.078125 6.109375 
Q 37.203125 6.109375 41.296875 11.75 
Q 45.40625 17.390625 45.40625 27.296875 
Q 45.40625 37.203125 41.296875 42.84375 
Q 37.203125 48.484375 30.078125 48.484375 
Q 22.953125 48.484375 18.875 42.84375 
Q 14.796875 37.203125 14.796875 27.296875 
" id="DejaVuSans-64"/>
            <path d="M 48.78125 52.59375 
L 48.78125 44.1875 
Q 44.96875 46.296875 41.140625 47.34375 
Q 37.3125 48.390625 33.40625 48.390625 
Q 24.65625 48.390625 19.8125 42.84375 
Q 14.984375 37.3125 14.984375 27.296875 
Q 14.984375 17.28125 19.8125 11.734375 
Q 24.65625 6.203125 33.40625 6.203125 
Q 37.3125 6.203125 41.140625 7.25 
Q 44.96875 8.296875 48.78125 10.40625 
L 48.78125 2.09375 
Q 45.015625 0.34375 40.984375 -0.53125 
Q 36.96875 -1.421875 32.421875 -1.421875 
Q 20.0625 -1.421875 12.78125 6.34375 
Q 5.515625 14.109375 5.515625 27.296875 
Q 5.515625 40.671875 12.859375 48.328125 
Q 20.21875 56 33.015625 56 
Q 37.15625 56 41.109375 55.140625 
Q 45.0625 54.296875 48.78125 52.59375 
" id="DejaVuSans-63"/>
            <path d="M 41.109375 46.296875 
Q 39.59375 47.171875 37.8125 47.578125 
Q 36.03125 48 33.890625 48 
Q 26.265625 48 22.1875 43.046875 
Q 18.109375 38.09375 18.109375 28.8125 
L 18.109375 0 
L 9.078125 0 
L 9.078125 54.6875 
L 18.109375 54.6875 
L 18.109375 46.1875 
Q 20.953125 51.171875 25.484375 53.578125 
Q 30.03125 56 36.53125 56 
Q 37.453125 56 38.578125 55.875 
Q 39.703125 55.765625 41.0625 55.515625 
z 
" id="DejaVuSans-72"/>
          </defs>
          <g transform="translate(19.7275 258.81375)rotate(-90.0)scale(0.16 -0.16)">
            <use xlink:href="#DejaVuSans-72"/>
            <use x="41.08203125" xlink:href="#DejaVuSans-65"/>
            <use x="102.60546875" xlink:href="#DejaVuSans-66"/>
            <use x="137.810546875" xlink:href="#DejaVuSans-72"/>
            <use x="178.923828125" xlink:href="#DejaVuSans-61"/>
            <use x="240.203125" xlink:href="#DejaVuSans-63"/>
            <use x="295.18359375" xlink:href="#DejaVuSans-74"/>
            <use x="334.392578125" xlink:href="#DejaVuSans-69"/>
            <use x="362.17578125" xlink:href="#DejaVuSans-76"/>
            <use x="421.35546875" xlink:href="#DejaVuSans-65"/>
            <use x="482.87890625" xlink:href="#DejaVuSans-20"/>
            <use x="514.666015625" xlink:href="#DejaVuSans-69"/>
            <use x="542.44921875" xlink:href="#DejaVuSans-6e"/>
            <use x="605.828125" xlink:href="#DejaVuSans-64"/>
            <use x="669.3046875" xlink:href="#DejaVuSans-65"/>
            <use x="730.8125" xlink:href="#DejaVuSans-78"/>
            <use x="789.9921875" xlink:href="#DejaVuSans-20"/>
            <use x="821.779296875" xlink:href="#DejaVuSans-6e"/>
          </g>
        </g>
      </g>
      <g id="text_16">
        <!-- Lanthanum  dense flint LaSF9 -->
        <defs>
          <path d="M 8.5 21.578125 
L 8.5 54.6875 
L 17.484375 54.6875 
L 17.484375 21.921875 
Q 17.484375 14.15625 20.5 10.265625 
Q 23.53125 6.390625 29.59375 6.390625 
Q 36.859375 6.390625 41.078125 11.03125 
Q 45.3125 15.671875 45.3125 23.6875 
L 45.3125 54.6875 
L 54.296875 54.6875 
L 54.296875 0 
L 45.3125 0 
L 45.3125 8.40625 
Q 42.046875 3.421875 37.71875 1 
Q 33.40625 -1.421875 27.6875 -1.421875 
Q 18.265625 -1.421875 13.375 4.4375 
Q 8.5 10.296875 8.5 21.578125 
M 31.109375 56 
z 
" id="DejaVuSans-75"/>
          <path d="M 53.515625 70.515625 
L 53.515625 60.890625 
Q 47.90625 63.578125 42.921875 64.890625 
Q 37.9375 66.21875 33.296875 66.21875 
Q 25.25 66.21875 20.875 63.09375 
Q 16.5 59.96875 16.5 54.203125 
Q 16.5 49.359375 19.40625 46.890625 
Q 22.3125 44.4375 30.421875 42.921875 
L 36.375 41.703125 
Q 47.40625 39.59375 52.65625 34.296875 
Q 57.90625 29 57.90625 20.125 
Q 57.90625 9.515625 50.796875 4.046875 
Q 43.703125 -1.421875 29.984375 -1.421875 
Q 24.8125 -1.421875 18.96875 -0.25 
Q 13.140625 0.921875 6.890625 3.21875 
L 6.890625 13.375 
Q 12.890625 10.015625 18.65625 8.296875 
Q 24.421875 6.59375 29.984375 6.59375 
Q 38.421875 6.59375 43.015625 9.90625 
Q 47.609375 13.234375 47.609375 19.390625 
Q 47.609375 24.75 44.3125 27.78125 
Q 41.015625 30.8125 33.5 32.328125 
L 27.484375 33.5 
Q 16.453125 35.6875 11.515625 40.375 
Q 6.59375 45.0625 6.59375 53.421875 
Q 6.59375 63.09375 13.40625 68.65625 
Q 20.21875 74.21875 32.171875 74.21875 
Q 37.3125 74.21875 42.625 73.28125 
Q 47.953125 72.359375 53.515625 70.515625 
" id="DejaVuSans-53"/>
          <path d="M 9.8125 72.90625 
L 51.703125 72.90625 
L 51.703125 64.59375 
L 19.671875 64.59375 
L 19.671875 43.109375 
L 48.578125 43.109375 
L 48.578125 34.8125 
L 19.671875 34.8125 
L 19.671875 0 
L 9.8125 0 
z 
" id="DejaVuSans-46"/>
          <path d="M 44.28125 53.078125 
L 44.28125 44.578125 
Q 40.484375 46.53125 36.375 47.5 
Q 32.28125 48.484375 27.875 48.484375 
Q 21.1875 48.484375 17.84375 46.4375 
Q 14.5 44.390625 14.5 40.28125 
Q 14.5 37.15625 16.890625 35.375 
Q 19.28125 33.59375 26.515625 31.984375 
L 29.59375 31.296875 
Q 39.15625 29.25 43.1875 25.515625 
Q 47.21875 21.78125 47.21875 15.09375 
Q 47.21875 7.46875 41.1875 3.015625 
Q 35.15625 -1.421875 24.609375 -1.421875 
Q 20.21875 -1.421875 15.453125 -0.5625 
Q 10.6875 0.296875 5.421875 2 
L 5.421875 11.28125 
Q 10.40625 8.6875 15.234375 7.390625 
Q 20.0625 6.109375 24.8125 6.109375 
Q 31.15625 6.109375 34.5625 8.28125 
Q 37.984375 10.453125 37.984375 14.40625 
Q 37.984375 18.0625 35.515625 20.015625 
Q 33.0625 21.96875 24.703125 23.78125 
L 21.578125 24.515625 
Q 13.234375 26.265625 9.515625 29.90625 
Q 5.8125 33.546875 5.8125 39.890625 
Q 5.8125 47.609375 11.28125 51.796875 
Q 16.75 56 26.8125 56 
Q 31.78125 56 36.171875 55.265625 
Q 40.578125 54.546875 44.28125 53.078125 
" id="DejaVuSans-73"/>
          <path d="M 9.8125 72.90625 
L 19.671875 72.90625 
L 19.671875 8.296875 
L 55.171875 8.296875 
L 55.171875 0 
L 9.8125 0 
z 
" id="DejaVuSans-4c"/>
        </defs>
        <g transform="translate(295.238461538 63.74)scale(0.16 -0.16)">
          <use xlink:href="#DejaVuSans-4c"/>
          <use x="55.712890625" xlink:href="#DejaVuSans-61"/>
          <use x="116.9921875" xlink:href="#DejaVuSans-6e"/>
          <use x="180.37109375" xlink:href="#DejaVuSans-74"/>
          <use x="219.580078125" xlink:href="#DejaVuSans-68"/>
          <use x="282.958984375" xlink:href="#DejaVuSans-61"/>
          <use x="344.23828125" xlink:href="#DejaVuSans-6e"/>
          <use x="407.6171875" xlink:href="#DejaVuSans-75"/>
          <use x="470.99609375" xlink:href="#DejaVuSans-6d"/>
          <use x="568.408203125" xlink:href="#DejaVuSans-20"/>
          <use x="600.1953125" xlink:href="#DejaVuSans-20"/>
          <use x="631.982421875" xlink:href="#DejaVuSans-64"/>
          <use x="695.458984375" xlink:href="#DejaVuSans-65"/>
          <use x="756.982421875" xlink:href="#DejaVuSans-6e"/>
          <use x="820.361328125" xlink:href="#DejaVuSans-73"/>
          <use x="872.4609375" xlink:href="#DejaVuSans-65"/>
          <use x="933.984375" xlink:href="#DejaVuSans-20"/>
          <use x="965.771484375" xlink:href="#DejaVuSans-66"/>
          <use x="1000.9765625" xlink:href="#DejaVuSans-6c"/>
          <use x="1028.75976562" xlink:href="#DejaVuSans-69"/>
          <use x="1056.54296875" xlink:href="#DejaVuSans-6e"/>
          <use x="1119.921875" xlink:href="#DejaVuSans-74"/>
          <use x="1159.13085938" xlink:href="#DejaVuSans-20"/>
          <use x="1190.91796875" xlink:href="#DejaVuSans-4c"/>
          <use x="1246.63085938" xlink:href="#DejaVuSans-61"/>
          <use x="1307.91015625" xlink:href="#DejaVuSans-53"/>
          <use x="1371.38671875" xlink:href="#DejaVuSans-46"/>
          <use x="1428.90625" xlink:href="#DejaVuSans-39"/>
        </g>
      </g>
      <g id="text_17">
        <!-- Dense flint SF10 -->
        <defs>
          <path d="M 19.671875 64.796875 
L 19.671875 8.109375 
L 31.59375 8.109375 
Q 46.6875 8.109375 53.6875 14.9375 
Q 60.6875 21.78125 60.6875 36.53125 
Q 60.6875 51.171875 53.6875 57.984375 
Q 46.6875 64.796875 31.59375 64.796875 
z 
M 9.8125 72.90625 
L 30.078125 72.90625 
Q 51.265625 72.90625 61.171875 64.09375 
Q 71.09375 55.28125 71.09375 36.53125 
Q 71.09375 17.671875 61.125 8.828125 
Q 51.171875 0 30.078125 0 
L 9.8125 0 
z 
" id="DejaVuSans-44"/>
        </defs>
        <g transform="translate(402.728461538 148.76)scale(0.16 -0.16)">
          <use xlink:href="#DejaVuSans-44"/>
          <use x="77.001953125" xlink:href="#DejaVuSans-65"/>
          <use x="138.525390625" xlink:href="#DejaVuSans-6e"/>
          <use x="201.904296875" xlink:href="#DejaVuSans-73"/>
          <use x="254.00390625" xlink:href="#DejaVuSans-65"/>
          <use x="315.52734375" xlink:href="#DejaVuSans-20"/>
          <use x="347.314453125" xlink:href="#DejaVuSans-66"/>
          <use x="382.51953125" xlink:href="#DejaVuSans-6c"/>
          <use x="410.302734375" xlink:href="#DejaVuSans-69"/>
          <use x="438.0859375" xlink:href="#DejaVuSans-6e"/>
          <use x="501.46484375" xlink:href="#DejaVuSans-74"/>
          <use x="540.673828125" xlink:href="#DejaVuSans-20"/>
          <use x="572.4609375" xlink:href="#DejaVuSans-53"/>
          <use x="635.9375" xlink:href="#DejaVuSans-46"/>
          <use x="693.45703125" xlink:href="#DejaVuSans-31"/>
          <use x="757.080078125" xlink:href="#DejaVuSans-30"/>
        </g>
      </g>
      <g id="text_18">
        <!-- Flint F2 -->
        <g transform="translate(475.065961538 215.468)scale(0.16 -0.16)">
          <use xlink:href="#DejaVuSans-46"/>
          <use x="57.51953125" xlink:href="#DejaVuSans-6c"/>
          <use x="85.302734375" xlink:href="#DejaVuSans-69"/>
          <use x="113.0859375" xlink:href="#DejaVuSans-6e"/>
          <use x="176.46484375" xlink:href="#DejaVuSans-74"/>
          <use x="215.673828125" xlink:href="#DejaVuSans-20"/>
          <use x="247.4609375" xlink:href="#DejaVuSans-46"/>
          <use x="304.98046875" xlink:href="#DejaVuSans-32"/>
        </g>
      </g>
      <g id="text_19">
        <!-- Barium crown BaK4 -->
        <defs>
          <path d="M 30.609375 48.390625 
Q 23.390625 48.390625 19.1875 42.75 
Q 14.984375 37.109375 14.984375 27.296875 
Q 14.984375 17.484375 19.15625 11.84375 
Q 23.34375 6.203125 30.609375 6.203125 
Q 37.796875 6.203125 41.984375 11.859375 
Q 46.1875 17.53125 46.1875 27.296875 
Q 46.1875 37.015625 41.984375 42.703125 
Q 37.796875 48.390625 30.609375 48.390625 
M 30.609375 56 
Q 42.328125 56 49.015625 48.375 
Q 55.71875 40.765625 55.71875 27.296875 
Q 55.71875 13.875 49.015625 6.21875 
Q 42.328125 -1.421875 30.609375 -1.421875 
Q 18.84375 -1.421875 12.171875 6.21875 
Q 5.515625 13.875 5.515625 27.296875 
Q 5.515625 40.765625 12.171875 48.375 
Q 18.84375 56 30.609375 56 
" id="DejaVuSans-6f"/>
          <path d="M 9.8125 72.90625 
L 19.671875 72.90625 
L 19.671875 42.09375 
L 52.390625 72.90625 
L 65.09375 72.90625 
L 28.90625 38.921875 
L 67.671875 0 
L 54.6875 0 
L 19.671875 35.109375 
L 19.671875 0 
L 9.8125 0 
z 
" id="DejaVuSans-4b"/>
          <path d="M 19.671875 34.8125 
L 19.671875 8.109375 
L 35.5 8.109375 
Q 43.453125 8.109375 47.28125 11.40625 
Q 51.125 14.703125 51.125 21.484375 
Q 51.125 28.328125 47.28125 31.5625 
Q 43.453125 34.8125 35.5 34.8125 
z 
M 19.671875 64.796875 
L 19.671875 42.828125 
L 34.28125 42.828125 
Q 41.5 42.828125 45.03125 45.53125 
Q 48.578125 48.25 48.578125 53.8125 
Q 48.578125 59.328125 45.03125 62.0625 
Q 41.5 64.796875 34.28125 64.796875 
z 
M 9.8125 72.90625 
L 35.015625 72.90625 
Q 46.296875 72.90625 52.390625 68.21875 
Q 58.5 63.53125 58.5 54.890625 
Q 58.5 48.1875 55.375 44.234375 
Q 52.25 40.28125 46.1875 39.3125 
Q 53.46875 37.75 57.5 32.78125 
Q 61.53125 27.828125 61.53125 20.40625 
Q 61.53125 10.640625 54.890625 5.3125 
Q 48.25 0 35.984375 0 
L 9.8125 0 
z 
" id="DejaVuSans-42"/>
        </defs>
        <g transform="translate(376.498461538 243.59)scale(0.16 -0.16)">
          <use xlink:href="#DejaVuSans-42"/>
          <use x="68.603515625" xlink:href="#DejaVuSans-61"/>
          <use x="129.8828125" xlink:href="#DejaVuSans-72"/>
          <use x="170.99609375" xlink:href="#DejaVuSans-69"/>
          <use x="198.779296875" xlink:href="#DejaVuSans-75"/>
          <use x="262.158203125" xlink:href="#DejaVuSans-6d"/>
          <use x="359.5703125" xlink:href="#DejaVuSans-20"/>
          <use x="391.357421875" xlink:href="#DejaVuSans-63"/>
          <use x="446.337890625" xlink:href="#DejaVuSans-72"/>
          <use x="487.419921875" xlink:href="#DejaVuSans-6f"/>
          <use x="548.6015625" xlink:href="#DejaVuSans-77"/>
          <use x="630.388671875" xlink:href="#DejaVuSans-6e"/>
          <use x="693.767578125" xlink:href="#DejaVuSans-20"/>
          <use x="725.5546875" xlink:href="#DejaVuSans-42"/>
          <use x="794.158203125" xlink:href="#DejaVuSans-61"/>
          <use x="855.4375" xlink:href="#DejaVuSans-4b"/>
          <use x="921.013671875" xlink:href="#DejaVuSans-34"/>
        </g>
      </g>
      <g id="text_20">
        <!-- Borosilicate crown BK7 -->
        <g transform="translate(350.313461538 276.29)scale(0.16 -0.16)">
          <use xlink:href="#DejaVuSans-42"/>
          <use x="68.603515625" xlink:href="#DejaVuSans-6f"/>
          <use x="129.78515625" xlink:href="#DejaVuSans-72"/>
          <use x="170.8671875" xlink:href="#DejaVuSans-6f"/>
          <use x="232.048828125" xlink:href="#DejaVuSans-73"/>
          <use x="284.1484375" xlink:href="#DejaVuSans-69"/>
          <use x="311.931640625" xlink:href="#DejaVuSans-6c"/>
          <use x="339.71484375" xlink:href="#DejaVuSans-69"/>
          <use x="367.498046875" xlink:href="#DejaVuSans-63"/>
          <use x="422.478515625" xlink:href="#DejaVuSans-61"/>
          <use x="483.7578125" xlink:href="#DejaVuSans-74"/>
          <use x="522.966796875" xlink:href="#DejaVuSans-65"/>
          <use x="584.490234375" xlink:href="#DejaVuSans-20"/>
          <use x="616.27734375" xlink:href="#DejaVuSans-63"/>
          <use x="671.2578125" xlink:href="#DejaVuSans-72"/>
          <use x="712.33984375" xlink:href="#DejaVuSans-6f"/>
          <use x="773.521484375" xlink:href="#DejaVuSans-77"/>
          <use x="855.30859375" xlink:href="#DejaVuSans-6e"/>
          <use x="918.6875" xlink:href="#DejaVuSans-20"/>
          <use x="950.474609375" xlink:href="#DejaVuSans-42"/>
          <use x="1019.078125" xlink:href="#DejaVuSans-4b"/>
          <use x="1084.65429688" xlink:href="#DejaVuSans-37"/>
        </g>
      </g>
      <g id="text_21">
        <!-- Fluorite crown FK51A -->
        <defs>
          <path d="M 34.1875 63.1875 
L 20.796875 26.90625 
L 47.609375 26.90625 
z 
M 28.609375 72.90625 
L 39.796875 72.90625 
L 67.578125 0 
L 57.328125 0 
L 50.6875 18.703125 
L 17.828125 18.703125 
L 11.1875 0 
L 0.78125 0 
z 
" id="DejaVuSans-41"/>
        </defs>
        <g transform="translate(363.765961538 318.8)scale(0.16 -0.16)">
          <use xlink:href="#DejaVuSans-46"/>
          <use x="57.51953125" xlink:href="#DejaVuSans-6c"/>
          <use x="85.302734375" xlink:href="#DejaVuSans-75"/>
          <use x="148.681640625" xlink:href="#DejaVuSans-6f"/>
          <use x="209.86328125" xlink:href="#DejaVuSans-72"/>
          <use x="250.9765625" xlink:href="#DejaVuSans-69"/>
          <use x="278.759765625" xlink:href="#DejaVuSans-74"/>
          <use x="317.96875" xlink:href="#DejaVuSans-65"/>
          <use x="379.4921875" xlink:href="#DejaVuSans-20"/>
          <use x="411.279296875" xlink:href="#DejaVuSans-63"/>
          <use x="466.259765625" xlink:href="#DejaVuSans-72"/>
          <use x="507.341796875" xlink:href="#DejaVuSans-6f"/>
          <use x="568.5234375" xlink:href="#DejaVuSans-77"/>
          <use x="650.310546875" xlink:href="#DejaVuSans-6e"/>
          <use x="713.689453125" xlink:href="#DejaVuSans-20"/>
          <use x="745.4765625" xlink:href="#DejaVuSans-46"/>
          <use x="802.99609375" xlink:href="#DejaVuSans-4b"/>
          <use x="868.572265625" xlink:href="#DejaVuSans-35"/>
          <use x="932.1953125" xlink:href="#DejaVuSans-31"/>
          <use x="995.818359375" xlink:href="#DejaVuSans-41"/>
        </g>
      </g>
    </g>
  </g>
</svg>
